<?xml version="1.0" encoding="UTF-8"?>
<svg id="OBJECTS" xmlns="http://www.w3.org/2000/svg" viewBox="0 0 179.52 179.52">
  <defs>
    <style>
      .cls-1 {
        fill: #fff;
        fill-rule: evenodd;
      }

      .cls-1, .cls-2, .cls-3, .cls-4, .cls-5, .cls-6, .cls-7 {
        stroke-width: 0px;
      }

      .cls-2 {
        fill: #292929;
      }

      .cls-3 {
        fill: #dbdbdb;
      }

      .cls-4 {
        fill: #fc8900;
      }

      .cls-5 {
        fill: #ffec40;
      }

      .cls-6 {
        fill: #ffc600;
      }

      .cls-7 {
        fill: #fefefe;
      }
    </style>
  </defs>
  <g>
    <circle class="cls-2" cx="89.76" cy="89.76" r="89.76" transform="translate(-37.18 89.76) rotate(-45)"/>
    <g>
      <g>
        <g>
          <path class="cls-7" d="m122.12,34.02c-13.58,0-25.47,7.25-31.99,18.1-.12.21-.25.41-.36.62-3.16,5.48-4.96,11.82-4.96,18.59,0,2.25.2,4.46.58,6.6.76,4.3,2.27,8.34,4.38,11.99,2.49,4.34,5.85,8.14,9.82,11.15,6.26,4.75,14.06,7.57,22.53,7.57,20.61,0,37.31-16.71,37.31-37.31s-16.71-37.31-37.31-37.31Zm0,59.43c-12.2,0-22.12-9.92-22.12-22.12s9.92-22.12,22.12-22.12,22.12,9.92,22.12,22.12-9.93,22.12-22.12,22.12Z"/>
          <path class="cls-6" d="m89.77,89.93c-.13.22-.27.44-.4.66.13-.22.27-.44.4-.66-2.11-3.65-3.61-7.69-4.38-11.99l-.09.02c.29,1.41.51,2.85.65,4.31-.15-1.46-.37-2.89-.65-4.31l.09-.02c-.38-2.14-.58-4.35-.58-6.6,0-6.77,1.8-13.12,4.96-18.59-6.45-11.19-18.52-18.72-32.36-18.72-10.08,0-19.24,4-25.95,10.5-7.01,6.78-11.37,16.29-11.37,26.81,0,20.61,16.71,37.31,37.31,37.31,10.99,0,20.86-4.75,27.69-12.3h0c.44-.49.87-.99,1.29-1.51-.42.51-.85,1.02-1.29,1.51-4.38,19.29-21.58,33.76-42.14,33.95h0c-.13,0-.26,0-.39,0s-.26,0-.39,0h0c-4.02.21-7.21,3.53-7.21,7.59s3.4,7.61,7.6,7.61c2.36,0,4.47-1.08,5.87-2.77-1.39,1.69-3.5,2.77-5.87,2.77,27.51,0,50.61-18.9,57.02-44.42-3.98-3.01-7.33-6.81-9.82-11.15Zm-32.36,3.52c-12.2,0-22.12-9.92-22.12-22.12s9.92-22.12,22.12-22.12,22.12,9.92,22.12,22.12-9.93,22.12-22.12,22.12Zm28.34-.65c.11-.8.2-1.6.27-2.42-.07.81-.16,1.62-.27,2.42Zm.36-3.64c.05-.82.07-1.64.07-2.47,0,.83-.02,1.65-.07,2.47Zm-37.23,52.98c.82-1.21,1.3-2.68,1.3-4.25,0-2.27-1-4.32-2.59-5.71,1.59,1.39,2.59,3.44,2.59,5.71,0,1.58-.48,3.04-1.3,4.25Zm-4.59-11.66c.38.09.75.21,1.11.35-.36-.14-.73-.26-1.11-.35Zm1.8.67c.25.13.49.27.72.43-.23-.16-.47-.3-.72-.43Z"/>
        </g>
        <g>
          <circle class="cls-7" cx="47.49" cy="63.97" r="7.98"/>
          <circle class="cls-6" cx="115.07" cy="63.97" r="7.98"/>
        </g>
      </g>
      <path class="cls-5" d="m25.08,76c0-20.58,16.68-37.26,37.26-37.26,8.82,0,16.92,3.07,23.3,8.19-6.84-7.91-16.95-12.91-28.23-12.91-10.08,0-19.24,4-25.95,10.5-7.01,6.78-11.37,16.29-11.37,26.81,0,12.01,5.68,22.69,14.5,29.52-5.91-6.59-9.51-15.3-9.51-24.85Z"/>
      <path class="cls-4" d="m98.29,100.04c-.09-.08-.19-.16-.28-.23-.4-.34-.8-.69-1.19-1.05-.09-.08-.18-.17-.27-.25-.32-.3-.63-.6-.94-.91-.1-.1-.2-.2-.3-.3-.35-.36-.69-.73-1.02-1.1-.12-.13-.23-.26-.35-.4-1.57-1.81-2.98-3.77-4.18-5.86-2.11-3.65-3.61-7.69-4.38-11.99-.38-2.14-.58-4.35-.58-6.6,0-6.77,1.8-13.12,4.96-18.59-.72-1.26-1.52-2.47-2.39-3.62-.21.33-.42.66-.62,1-.14.23-.27.46-.4.7-3.58,6.22-5.47,13.31-5.47,20.53,0,2.44.22,4.9.64,7.29.83,4.68,2.46,9.14,4.84,13.26.19.33.39.66.59.99,3.92,6.41,4.71,14.3,1.72,21.2-7.08,16.34-22.2,28.38-40.37,31.14,24.94-2.42,45.32-20.41,51.28-44.13-.44-.34-.87-.68-1.3-1.04Zm-12.99-22.09c.29,1.41.51,2.85.65,4.31-.15-1.46-.37-2.89-.65-4.31Z"/>
      <path class="cls-3" d="m138.42,37.77c8.93,6.82,14.7,17.57,14.7,29.67,0,20.61-16.71,37.31-37.31,37.31-5.85,0-11.38-1.35-16.31-3.75.03.02.06.05.1.08,6.26,4.75,14.06,7.57,22.53,7.57,20.61,0,37.31-16.71,37.31-37.31,0-14.76-8.57-27.52-21.01-33.57Z"/>
    </g>
  </g>
  <g>
    <path class="cls-1" d="m138.51,138.67c-7.17,12.64-20.09,21.9-32.48,25.35-17.36,4.83-35.4.53-51.25-10.6-1.24-.87-.85-2.65.51-2.08,15.55,6.47,33.02,8.11,49.32,3.57,11-3.06,22.23-9.51,31.58-18.97,1.41-1.43,3.5.63,2.31,2.73Z"/>
    <path class="cls-1" d="m140.87,131.16c-1.88-1.84-8.68,1.3-11.73,2.7-.92.43-1.39-.67-.75-1.74,4.18-6.96,13.92-8,15.5-6.5,1.6,1.52,3.73,14.49.08,21.98-.56,1.15-1.48.88-1.45-.45.07-4.37.24-14.15-1.64-15.99Z"/>
  </g>
</svg>